# xmcd
#
# Track frame offsets:
#	150
#	15468
#	34702
#	52607
#	70959
#	86216
#	109116
#	134593
#	148937
#	162725
#	183675
#
# Disc length: 2674 seconds
#
# Revision: 2
# Processed by: cddbd v1.5.2PL0 Copyright (c) Steve Scherf et al.
# Submitted via: EasyCDDAExtractor 16.0.1.1
#
DISCID=9f0a700b
DTITLE=Kim Carson And The Casualties - Dirty Halo
DYEAR=1997
DGENRE=Country
TTITLE0=Set Me Free
TTITLE1=We Belong
TTITLE2=Out Of My Way Back To You
TTITLE3=I Wish I Knew
TTITLE4=Outside
TTITLE5=Fly Away
TTITLE6=Fool For You
TTITLE7=Cajun Moon
TTITLE8=Tell Me I'm Wrong
TTITLE9=I Keep Holding On
TTITLE10=You Don't Want To Be The One
EXTD=
EXTT0=
EXTT1=
EXTT2=
EXTT3=
EXTT4=
EXTT5=
EXTT6=
EXTT7=
EXTT8=
EXTT9=
EXTT10=
PLAYORDER=
